<mxfile host="Electron" modified="2021-02-16T18:29:16.345Z" agent="5.0 (X11; Linux x86_64) AppleWebKit/537.36 (KHTML, like Gecko) draw.io/13.7.9 Chrome/85.0.4183.121 Electron/10.1.3 Safari/537.36" etag="ScJ71fyg09r22tInxyz-" compressed="false" version="13.7.9" type="device" pages="2">
  <diagram id="eOFHyZ-xhnIXcUM5toCf" name="Initiatives">
    <mxGraphModel dx="702" dy="1000" grid="1" gridSize="10" guides="1" tooltips="1" connect="1" arrows="1" fold="1" page="1" pageScale="1" pageWidth="850" pageHeight="1100" math="0" shadow="0">
      <root>
        <mxCell id="0" />
        <mxCell id="1" parent="0" />
        <mxCell id="FR3NgYh25ot7s_KH3V6c-3" value="" style="edgeStyle=orthogonalEdgeStyle;rounded=0;orthogonalLoop=1;jettySize=auto;html=1;" parent="1" source="FR3NgYh25ot7s_KH3V6c-1" target="FR3NgYh25ot7s_KH3V6c-2" edge="1">
          <mxGeometry relative="1" as="geometry" />
        </mxCell>
        <mxCell id="FR3NgYh25ot7s_KH3V6c-5" style="edgeStyle=orthogonalEdgeStyle;rounded=0;orthogonalLoop=1;jettySize=auto;html=1;exitX=0;exitY=0.5;exitDx=0;exitDy=0;entryX=1;entryY=0.5;entryDx=0;entryDy=0;" parent="1" source="FR3NgYh25ot7s_KH3V6c-1" target="FR3NgYh25ot7s_KH3V6c-4" edge="1">
          <mxGeometry relative="1" as="geometry" />
        </mxCell>
        <mxCell id="FR3NgYh25ot7s_KH3V6c-7" style="edgeStyle=orthogonalEdgeStyle;rounded=0;orthogonalLoop=1;jettySize=auto;html=1;exitX=1;exitY=0.5;exitDx=0;exitDy=0;entryX=0;entryY=0.5;entryDx=0;entryDy=0;" parent="1" source="FR3NgYh25ot7s_KH3V6c-1" target="FR3NgYh25ot7s_KH3V6c-6" edge="1">
          <mxGeometry relative="1" as="geometry" />
        </mxCell>
        <mxCell id="FR3NgYh25ot7s_KH3V6c-1" value="VacFind" style="rounded=1;whiteSpace=wrap;html=1;" parent="1" vertex="1">
          <mxGeometry x="350" y="360" width="120" height="60" as="geometry" />
        </mxCell>
        <mxCell id="FR3NgYh25ot7s_KH3V6c-2" value="Provide Open-source&amp;nbsp; Resources and tools to local volunteer groups looking to start their own vaccination site tracker/finder" style="whiteSpace=wrap;html=1;rounded=1;" parent="1" vertex="1">
          <mxGeometry x="330" y="510" width="160" height="110" as="geometry" />
        </mxCell>
        <mxCell id="FR3NgYh25ot7s_KH3V6c-4" value="Create a highly-findable/well-known website to help increase visibility of local vaccination and test-finding tools&amp;nbsp;" style="whiteSpace=wrap;html=1;rounded=1;" parent="1" vertex="1">
          <mxGeometry x="70" y="335" width="160" height="110" as="geometry" />
        </mxCell>
        <mxCell id="FR3NgYh25ot7s_KH3V6c-6" value="Create a community so groups can share knowledge, time, and resources" style="whiteSpace=wrap;html=1;rounded=1;" parent="1" vertex="1">
          <mxGeometry x="580" y="335" width="160" height="110" as="geometry" />
        </mxCell>
      </root>
    </mxGraphModel>
  </diagram>
  <diagram id="04LXClpR9_Lojox9i802" name="Data Flow">
    <mxGraphModel dx="702" dy="1000" grid="1" gridSize="10" guides="1" tooltips="1" connect="1" arrows="1" fold="1" page="1" pageScale="1" pageWidth="850" pageHeight="1100" math="0" shadow="0">
      <root>
        <mxCell id="Fi0-K14BqQJsS7n9cWpX-0" />
        <mxCell id="Fi0-K14BqQJsS7n9cWpX-1" parent="Fi0-K14BqQJsS7n9cWpX-0" />
      </root>
    </mxGraphModel>
  </diagram>
</mxfile>
